<svg xmlns="http://www.w3.org/2000/svg" viewBox="0 0 24 24">
    <g>
        <path fill="none" d="M0 0h24v24H0z"/>
        <path d="M21 9.5v3c0 2.485-4.03 4.5-9 4.5s-9-2.015-9-4.5v-3c0 2.485 4.03 4.5 9 4.5s9-2.015 9-4.5zm-18 5c0 2.485 4.03 4.5 9 4.5s9-2.015 9-4.5v3c0 2.485-4.03 4.5-9 4.5s-9-2.015-9-4.5v-3zm9-2.5c-4.97 0-9-2.015-9-4.5S7.03 3 12 3s9 2.015 9 4.5-4.03 4.5-9 4.5z" fill="url(#gradient)"/>
         <linearGradient id="gradient">
            <stop offset="0%" stop-color="seagreen" />
            <stop offset="50%" stop-color="#11773c" />
            <stop offset="100%" stop-color="#045f2c" />
          </linearGradient>
    </g>
</svg>
