<svg xmlns="http://www.w3.org/2000/svg" viewBox="0 0 24 24">
    <g>
        <path fill="none" d="M0 0h24v24H0z"/>
        <path d="M22 6h-7a6 6 0 1 0 0 12h7v2a1 1 0 0 1-1 1H3a1 1 0 0 1-1-1V4a1 1 0 0 1 1-1h18a1 1 0 0 1 1 1v2zm-7 2h8v8h-8a4 4 0 1 1 0-8zm0 3v2h3v-2h-3z"  fill="url(#gradient)"/>
         <linearGradient id="gradient">
            <stop offset="0%" stop-color="seagreen" />
            <stop offset="50%" stop-color="#11773c" />
            <stop offset="100%" stop-color="#045f2c" />
          </linearGradient>
    </g>
</svg>
